<svg version="1.0" xmlns="http://www.w3.org/2000/svg" width="1200.000000pt" height="1600.000000pt" viewBox="0 0 1200.000000 1600.000000" preserveAspectRatio="xMidYMid meet">

    <defs>
        <style>
            .head {
                fill: #b6b6b6;
                stroke-dasharray: 30600;
                stroke-dashoffset: 30600;
                animation: head 12s linear forwards;
            }
            @keyframes head {
                0% {
                    stroke-width: 40px;
                    stroke-dashoffset: 30600;
                }
                80% {
                    stroke-dashoffset:0 fill: #fff;
                }
                100% {
                    fill: #fff;
                    stroke-width: 0;
                    stroke-dashoffset: 0;
                }
            }
            .head:hover {
                animation: head-hover 2s linear forwards;
            }
            @keyframes head-hover {
                0% {
                    fill: #b6b6b6;
                }
                50 {
                    fill: #grey;
                }
                100% {
                    fill: #fff;
                }
            }

        </style>
    </defs>
    <g transform="translate(0.000000,1600.000000) scale(0.100000,-0.100000)" fill="#000000">
        <path
            class="head"
            stroke="#fff"
            stroke-miterlimit="10"
            d="M7205 14650 c-66 -11 -154 -32 -195 -46 -110 -38 -310 -141 -430
-221 -178 -119 -315 -176 -494 -207 -76 -13 -114 -27 -250 -95 -267 -134 -529
-308 -667 -443 -119 -117 -306 -367 -442 -591 -74 -122 -224 -420 -254 -505
-14 -42 -15 -55 -5 -70 25 -35 25 -47 3 -106 -61 -166 -223 -662 -240 -736
-35 -150 -46 -290 -46 -605 0 -283 2 -309 28 -460 15 -88 41 -210 57 -271 40
-152 144 -460 192 -569 22 -49 64 -151 95 -225 128 -312 200 -472 269 -595 55
-98 79 -153 94 -215 27 -109 94 -246 166 -336 44 -56 69 -77 115 -100 59 -28
61 -28 142 -16 46 7 111 12 145 12 34 0 82 5 107 12 l45 12 -1 46 c-2 101 -37
132 -53 48 -9 -47 -10 -47 -55 -53 -25 -3 -76 -10 -113 -15 -94 -14 -163 -12
-203 4 -76 32 -180 205 -224 376 -18 67 -44 136 -65 173 -69 118 -145 283
-250 537 -58 140 -124 298 -146 350 -23 52 -68 174 -101 271 -184 556 -234
1046 -152 1504 14 77 21 95 48 122 41 41 77 43 93 8 17 -37 15 -101 -7 -234
-30 -181 -33 -225 -21 -391 20 -295 82 -585 165 -770 46 -103 78 -206 90 -295
12 -81 23 -27 24 110 1 76 6 128 14 141 6 12 25 45 41 75 15 30 50 79 77 110
62 72 76 103 59 124 -21 25 -30 17 -30 -24 0 -32 -5 -43 -29 -61 -48 -33 -159
-82 -192 -84 l-31 -1 -34 150 c-71 311 -79 372 -78 600 0 189 2 225 28 359
l28 148 -26 87 c-26 83 -26 88 -11 125 9 21 21 63 26 94 6 32 31 120 56 197
l46 140 82 85 c55 56 101 116 135 175 28 50 66 105 83 124 29 30 112 88 253
176 39 24 69 60 159 191 135 197 128 189 282 352 69 73 123 135 121 138 -8 7
-144 -93 -214 -159 -37 -34 -119 -127 -182 -207 -149 -188 -178 -218 -292
-302 -125 -93 -188 -154 -270 -264 -37 -49 -86 -105 -109 -123 l-41 -33 0 34
c0 19 -9 60 -21 93 -20 56 -20 60 -3 104 78 209 303 572 534 861 158 198 700
558 921 613 35 8 113 27 174 41 132 31 241 82 426 198 240 152 348 202 504
235 155 32 649 27 820 -9 143 -30 360 -93 468 -137 67 -26 160 -61 207 -76
229 -74 411 -167 645 -329 99 -69 203 -139 232 -156 68 -42 198 -97 262 -113
33 -8 51 -17 51 -27 0 -54 23 -197 36 -230 10 -24 44 -66 88 -108 l72 -67 17
-103 c19 -110 39 -172 57 -172 6 0 9 8 6 18 -3 9 -12 62 -21 117 -22 139 -30
160 -78 196 -109 84 -127 120 -134 278 l-6 127 -91 23 c-117 30 -176 57 -256
117 -36 26 -119 85 -185 129 -66 45 -140 95 -165 112 -104 71 -339 177 -567
257 -55 19 -139 51 -187 70 -107 45 -427 132 -556 152 -52 8 -196 16 -320 19
-192 4 -243 2 -345 -15z"/>
        <path class="head" stroke="#fff" stroke-miterlimit="10" d="M5471 14204 c-131 -73 -327 -218 -463 -343 -53 -49 -118 -133 -118
-154 0 -5 44 32 97 83 115 109 231 203 413 335 74 54 139 102 145 106 21 20
-13 7 -74 -27z"/>
        <path
            class="head"
            stroke="#fff"
            stroke-miterlimit="10"
            d="M9426 13758 c5 -7 42 -61 84 -120 89 -127 207 -313 243 -385 59 -116
137 -463 137 -610 0 -50 -3 -104 -6 -121 -6 -28 -10 -31 -47 -34 l-41 -3 31
-35 c17 -19 49 -66 73 -104 23 -38 60 -93 82 -122 59 -79 76 -137 108 -367 17
-116 32 -219 36 -229 24 -77 33 102 14 293 -17 170 -24 192 -101 311 -106 161
-110 181 -87 388 l12 106 -56 226 c-30 125 -68 254 -85 289 -38 83 -212 358
-266 422 -40 49 -111 107 -129 107 -5 0 -6 -6 -2 -12z"/>
        <path class="head" stroke="#fff" stroke-miterlimit="10" d="M9543 13384 c3 -11 29 -174 57 -364 54 -364 65 -420 80 -420 14 0 12
93 -5 251 -28 264 -59 429 -96 500 -21 42 -45 63 -36 33z"/>
        <path
            class="head"
            stroke="#fff"
            stroke-miterlimit="10"
            d="M10010 12962 c0 -4 41 -57 90 -117 134 -162 138 -174 160 -458 6 -76
17 -173 26 -215 41 -212 36 -371 -15 -452 -21 -33 -31 -64 -36 -113 -7 -59
-11 -70 -32 -80 -21 -10 -23 -15 -18 -56 6 -44 28 -131 42 -167 5 -14 0 -15
-44 -9 -65 9 -69 -2 -43 -111 31 -133 43 -258 36 -384 -7 -132 -13 -160 -32
-160 -7 0 -21 12 -31 26 -10 15 -29 38 -43 51 -24 24 -25 29 -25 166 1 169 11
212 55 221 41 8 38 26 -5 26 -35 0 -75 -28 -75 -52 0 -7 -7 -58 -15 -113 -22
-154 -20 -243 8 -296 38 -71 69 -225 87 -429 13 -148 6 -208 -26 -220 -27 -11
-55 -62 -80 -145 -16 -55 -16 -103 -10 -575 8 -614 14 -715 42 -688 3 4 10
164 15 355 5 191 11 367 14 390 6 39 9 43 43 53 20 5 43 10 51 10 28 0 98 50
125 88 31 46 114 249 175 434 32 96 54 144 93 199 75 106 128 281 113 370 -7
43 -39 89 -60 89 -31 0 -48 47 -41 113 17 154 18 223 5 296 -10 56 -14 194
-14 521 0 416 -2 453 -22 560 -27 144 -54 229 -108 350 -23 52 -54 131 -69
175 -25 77 -30 84 -129 181 -145 143 -207 193 -207 166z m366 -643 c22 -43 39
-104 65 -234 20 -99 23 -155 30 -575 5 -256 11 -506 15 -557 3 -51 1 -134 -5
-186 l-11 -95 45 -93 c24 -52 47 -113 51 -136 10 -62 -24 -160 -99 -285 -43
-72 -76 -144 -101 -220 -52 -156 -76 -203 -107 -203 -48 0 -62 83 -78 460
l-10 230 30 115 c24 95 30 143 35 275 6 169 -1 258 -31 367 -11 37 -16 70 -13
73 16 16 60 -23 86 -74 l27 -56 -1 -225 c0 -199 -3 -242 -27 -374 -28 -155
-33 -216 -18 -216 18 0 59 182 86 389 28 212 18 320 -54 621 -36 148 -26 246
40 391 56 123 58 164 19 407 -17 112 -29 209 -26 217 9 25 35 17 52 -16z"/>
        <path
            class="head"
            stroke="#fff"
            stroke-miterlimit="10"
            d="M5263 12778 c-42 -46 -147 -216 -208 -338 -35 -69 -75 -140 -89 -159
-30 -40 -28 -46 8 -30 44 20 47 3 21 -116 -21 -94 -24 -137 -25 -301 0 -125 5
-221 15 -275 8 -46 62 -250 120 -453 110 -385 125 -446 107 -446 -5 0 -44 -32
-86 -71 -42 -39 -76 -66 -76 -60 0 5 -51 63 -113 128 -63 65 -119 127 -125
138 -20 38 -42 189 -67 450 -28 292 -37 354 -66 441 -21 64 -58 109 -117 139
-43 21 -52 12 -24 -23 64 -78 83 -109 93 -144 15 -57 36 -230 49 -398 21 -288
41 -413 77 -485 8 -16 61 -75 118 -130 133 -131 165 -177 176 -263 13 -100 39
-191 139 -477 110 -316 129 -365 143 -365 6 0 8 20 4 53 -6 61 7 100 18 51 4
-16 31 -105 60 -199 105 -329 166 -558 230 -856 55 -255 93 -330 203 -394 77
-45 105 -54 117 -35 9 15 -11 43 -94 132 l-71 76 -46 174 c-25 95 -70 268
-101 383 -168 631 -189 727 -217 965 -72 607 -71 601 -118 712 -16 38 -36 103
-44 145 -9 43 -52 204 -95 358 -154 545 -166 651 -115 1010 8 61 20 146 26
190 12 90 46 172 127 300 88 140 110 195 80 195 -8 0 -23 -10 -34 -22z m22
-2280 c21 -118 45 -403 45 -535 0 -172 -11 -182 -69 -60 -75 155 -151 461
-137 550 8 50 29 81 85 123 54 42 56 40 76 -78z"/>
        <path
            class="head"
            stroke="#fff"
            stroke-miterlimit="10"
            d="M9142 12540 c-17 -48 -15 -122 8 -255 19 -113 25 -279 11 -337 -3
-14 -37 -63 -76 -108 -75 -87 -83 -100 -65 -100 18 0 126 107 167 167 35 51
37 59 41 146 3 71 -2 120 -22 217 -14 69 -28 157 -32 195 -4 39 -10 79 -14 89
-6 17 -8 15 -18 -14z"/>
        <path
            class="head"
            stroke="#fff"
            stroke-miterlimit="10"
            d="M5777 12389 c-58 -88 -121 -390 -152 -739 -9 -96 -29 -240 -45 -320
-26 -132 -29 -170 -34 -432 l-6 -287 25 -68 c31 -83 84 -173 102 -173 22 0 15
70 -17 161 -37 107 -50 218 -50 441 0 143 4 194 20 264 30 129 47 246 70 479
24 252 32 303 76 509 37 171 40 208 11 165z"/>
        <path class="head" stroke="#fff" stroke-miterlimit="10" d="M9680 12353 c0 -13 144 -270 195 -348 52 -78 105 -138 105 -118 0 21
-175 350 -213 401 -43 57 -87 90 -87 65z"/>
        <path
            class="head"
            stroke="#fff"
            stroke-miterlimit="10"
            d="M6910 12012 c0 -15 75 -116 244 -330 192 -243 276 -359 276 -378 0
-20 -64 -18 -190 6 -172 34 -555 90 -710 105 -214 20 -447 30 -435 17 12 -12
238 -50 515 -87 107 -15 263 -38 345 -51 83 -14 226 -36 320 -50 194 -28 238
-38 255 -59 11 -13 5 -15 -41 -15 -69 0 -250 22 -454 54 -306 48 -750 105
-1023 130 -27 2 -52 12 -67 26 -13 12 -28 19 -33 16 -5 -3 -13 -95 -17 -203
-4 -109 -13 -250 -20 -313 -8 -63 -30 -248 -50 -410 -19 -162 -35 -306 -35
-320 1 -22 10 -15 78 56 135 143 299 292 349 316 26 14 120 61 208 105 209
106 518 249 836 388 141 61 278 126 305 143 31 21 60 32 84 32 23 0 64 14 111
39 72 38 352 158 654 280 83 33 189 79 235 101 l85 41 -50 -5 c-28 -2 -125
-32 -215 -66 -387 -146 -504 -175 -544 -134 -22 21 -20 70 5 124 27 58 114
287 123 323 5 20 3 27 -8 27 -8 0 -23 -12 -34 -27 -21 -30 -185 -357 -248
-493 -51 -112 -81 -158 -117 -176 -48 -25 -79 -5 -144 95 -101 154 -338 449
-499 620 -71 75 -94 93 -94 73z m-508 -763 c330 -45 412 -60 515 -90 81 -24
111 -50 120 -102 5 -33 2 -37 -43 -71 -60 -43 -382 -209 -519 -266 -169 -72
-289 -136 -300 -161 -5 -12 -15 -24 -21 -26 -12 -4 -65 178 -145 496 -48 189
-57 249 -41 265 10 11 96 2 434 -45z"/>
        <path class="head" stroke="#fff" stroke-miterlimit="10" d="M9716 11968 c4 -7 47 -71 95 -143 75 -110 92 -144 114 -220 14 -49
29 -116 32 -148 3 -32 10 -60 16 -64 18 -11 1 196 -22 267 -31 100 -188 320
-227 320 -9 0 -12 -5 -8 -12z"/>
        <path
            class="head"
            stroke="#fff"
            stroke-miterlimit="10"
            d="M8935 11664 c-181 -79 -518 -219 -808 -334 -169 -68 -331 -138 -360
-156 -28 -18 -67 -40 -84 -49 -18 -8 -33 -19 -33 -24 0 -13 86 -47 180 -71 47
-12 184 -51 305 -86 121 -36 294 -87 385 -114 403 -118 409 -139 85 -251 -81
-28 -212 -77 -290 -110 -78 -33 -149 -57 -158 -53 -11 4 -16 -1 -19 -18 -7
-47 -34 -31 -73 44 -142 271 -413 660 -470 674 -17 4 -56 -11 -137 -54 -62
-33 -311 -154 -553 -267 -593 -279 -676 -323 -785 -411 -115 -92 -285 -284
-285 -320 0 -14 19 -17 130 -20 138 -3 511 -30 558 -40 37 -8 34 -24 -5 -25
-18 -1 -94 -4 -168 -8 l-135 -6 57 -19 c32 -10 66 -25 75 -33 16 -13 13 -14
-28 -8 -25 3 -91 19 -146 35 -55 15 -149 36 -209 45 -60 9 -129 21 -153 26
-34 8 -48 7 -58 -4 -24 -24 -194 -381 -191 -402 3 -23 16 -23 103 -1 33 9 157
32 275 51 118 20 235 42 259 50 46 15 115 64 202 141 28 25 75 56 105 69 30
13 68 34 84 45 15 11 60 33 99 49 39 16 115 58 169 94 116 78 206 127 235 127
13 0 -21 -29 -94 -77 -126 -86 -229 -164 -229 -175 0 -9 93 -28 140 -28 36 0
40 3 70 56 32 57 105 144 122 144 13 0 -8 -35 -64 -109 -27 -36 -51 -76 -55
-90 -8 -31 17 -52 114 -97 39 -19 73 -38 75 -44 6 -20 314 20 490 64 37 9 60
11 64 4 3 -5 10 -41 15 -79 9 -73 26 -120 45 -126 17 -5 68 157 54 171 -5 5
-10 23 -10 39 0 15 -5 37 -11 49 -14 26 -3 37 14 14 21 -29 47 -12 104 67 69
96 125 156 130 139 5 -14 -21 -57 -97 -162 -26 -36 -52 -81 -59 -100 -18 -54
-33 -349 -26 -509 l7 -145 88 -180 c49 -100 100 -214 114 -254 39 -111 63
-151 89 -152 14 0 7 63 -29 253 -44 239 -66 318 -159 587 -36 102 -47 151 -49
200 l-1 65 55 3 c30 2 71 -1 91 -7 58 -17 71 -40 76 -128 4 -84 11 -128 19
-121 2 3 34 70 69 149 67 148 99 195 114 171 11 -19 21 -270 22 -591 1 -261 6
-340 21 -315 4 6 35 145 68 310 71 345 106 499 120 522 21 38 8 -63 -55 -406
-37 -195 -65 -365 -63 -376 3 -20 4 -20 21 5 22 32 145 326 187 446 42 120
157 356 170 348 5 -3 10 -49 11 -103 1 -134 5 -145 56 -154 23 -4 53 -14 66
-23 42 -27 111 -125 190 -267 42 -75 88 -155 102 -178 31 -50 49 -21 -152
-235 -206 -219 -217 -238 -43 -75 173 162 242 220 259 220 33 0 -6 -49 -175
-223 -158 -161 -422 -419 -472 -460 l-34 -27 26 -44 c29 -50 135 -172 321
-371 154 -166 195 -212 195 -225 0 -14 -45 -12 -115 5 -33 8 -88 15 -122 15
-53 0 -63 -3 -68 -20 -11 -35 -35 -22 -59 33 -13 28 -60 159 -106 289 -88 252
-95 261 -121 180 -6 -20 -24 -50 -39 -67 -65 -70 -320 -448 -320 -474 0 -9 15
-10 58 -4 79 11 208 9 327 -5 115 -13 653 -16 673 -3 17 11 4 26 -243 286
-199 209 -264 283 -309 350 l-27 40 33 29 c18 16 117 108 221 204 200 188 279
252 307 252 14 0 18 -13 23 -82 4 -46 7 -153 8 -238 1 -285 14 -469 37 -540
11 -36 25 -99 29 -140 l8 -75 35 48 c64 87 131 210 120 221 -7 7 -17 7 -30 -2
-26 -16 -91 -15 -114 3 -16 12 -20 35 -27 162 -5 81 -6 229 -3 328 3 99 1 275
-4 391 l-9 210 -108 185 c-60 101 -112 187 -117 190 -14 9 -208 342 -203 348
10 9 61 -36 93 -85 18 -27 59 -100 90 -163 56 -111 113 -193 127 -180 8 8 -20
130 -80 345 -49 177 -52 194 -30 194 10 0 33 -58 76 -192 78 -247 87 -271 103
-294 8 -10 18 -16 22 -12 4 5 2 133 -6 285 -7 153 -11 292 -9 308 l4 30 130 6
c72 4 189 18 260 33 72 14 168 30 215 36 198 26 47 41 -190 19 -63 -6 -192
-16 -285 -22 l-171 -12 -64 -46 c-93 -66 -167 -105 -230 -120 -82 -21 -382
-18 -489 4 -65 13 -137 17 -334 17 -172 0 -248 3 -241 10 14 14 103 28 262 40
76 5 144 16 160 24 15 8 63 44 107 81 106 89 144 114 245 165 47 23 108 57
136 75 74 48 224 185 224 206 0 30 42 49 131 59 214 25 497 -6 516 -57 9 -24
-15 -39 -157 -96 -202 -81 -410 -189 -410 -213 0 -10 72 -64 86 -64 3 0 21 -7
39 -16 41 -19 49 -15 112 57 112 128 282 259 336 259 8 0 76 -64 151 -142 75
-77 139 -138 143 -135 9 10 -26 56 -147 195 -114 131 -107 119 -244 462 -36
91 -97 256 -137 368 -76 220 -129 344 -136 324 -3 -6 11 -67 30 -135 19 -67
41 -144 48 -172 20 -78 96 -279 155 -407 30 -65 57 -132 61 -149 l6 -32 -104
5 c-106 6 -187 27 -279 71 -44 21 -45 24 -57 87 -8 44 -12 200 -13 473 0 224
-4 407 -8 407 -37 0 -54 -170 -53 -533 1 -283 -1 -308 -17 -315 -9 -4 -60 -7
-112 -6 -88 1 -114 7 -370 83 -255 75 -712 206 -805 230 -22 6 -49 17 -60 25
-18 14 -10 15 83 16 l103 0 52 39 c84 63 256 154 409 216 267 107 598 276 612
310 8 22 -11 18 -99 -21z m-1496 -933 c-79 -157 -159 -307 -176 -334 -18 -27
-33 -53 -33 -58 0 -5 88 -95 196 -201 187 -184 227 -228 205 -228 -14 0 -231
179 -321 264 -115 109 -131 112 -694 97 l-399 -11 -81 -33 c-44 -19 -107 -46
-138 -60 -32 -15 -58 -23 -58 -18 0 30 204 129 291 142 35 5 174 16 309 24
135 9 274 21 310 28 43 9 93 10 145 6 44 -4 110 -8 146 -8 l66 -1 12 39 c25
85 256 530 322 621 71 98 36 5 -102 -269z m250 194 c5 -19 35 -65 67 -102 78
-92 126 -168 189 -298 85 -175 87 -160 -41 -283 -60 -57 -104 -102 -99 -100 6
2 118 58 250 124 332 165 705 333 910 409 55 21 118 46 139 57 l40 20 18 -22
c10 -12 18 -25 18 -29 0 -3 -22 -12 -49 -18 -54 -13 -498 -196 -596 -246 -33
-17 -53 -32 -45 -34 8 -2 127 19 264 47 258 52 309 59 289 39 -25 -25 -295
-88 -576 -133 -100 -17 -166 -41 -151 -56 5 -5 85 -13 177 -20 93 -6 181 -16
195 -22 l27 -11 -30 -7 c-16 -4 -82 -8 -145 -9 -147 -2 -163 -11 -84 -46 32
-15 54 -29 47 -32 -10 -4 -140 49 -226 93 -45 22 -81 17 -194 -31 -177 -74
-314 -168 -327 -222 -11 -45 -28 -83 -36 -78 -4 2 -1 32 7 67 18 83 12 170
-43 607 -24 194 -44 367 -44 385 l1 31 19 -23 c11 -13 24 -39 29 -57z m-402
-196 c-12 -97 -105 -261 -163 -285 -56 -23 -235 -13 -350 21 -49 14 -104 53
-104 74 0 6 16 29 36 50 42 48 288 174 429 220 l90 30 33 -32 c31 -29 33 -36
29 -78z m301 -103 c23 -71 43 -210 49 -336 l6 -125 36 -40 c49 -55 28 -55 -98
0 -120 52 -172 91 -226 169 -36 53 -38 58 -27 94 16 53 105 199 150 245 29 30
43 37 67 35 25 -3 32 -9 43 -42z"/>
        <path
            class="head"
            stroke="#fff"
            stroke-miterlimit="10"
            d="M9800 11369 c0 -2 10 -29 22 -59 20 -49 22 -72 22 -205 0 -82 -6
-190 -13 -240 -12 -92 -3 -187 20 -210 15 -15 29 13 29 62 0 23 9 103 20 178
11 74 23 174 26 221 l7 85 -47 68 c-40 59 -86 112 -86 100z"/>
        <path class="head" stroke="#fff" stroke-miterlimit="10" d="M5796 10978 c-3 -18 -10 -83 -16 -143 -6 -61 -17 -146 -25 -189 -18
-91 -20 -227 -4 -186 6 14 24 81 41 150 26 105 31 146 32 259 1 96 -2 135 -11
138 -7 3 -14 -9 -17 -29z"/>
        <path
            class="head"
            stroke="#fff"
            stroke-miterlimit="10"
            d="M5440 10606 c-14 -43 -9 -64 47 -206 25 -63 48 -136 51 -163 4 -46 3
-48 -27 -58 -40 -14 -46 -37 -37 -152 11 -140 44 -277 67 -277 5 0 13 10 20
21 6 12 27 42 46 68 38 49 113 195 113 220 0 34 -249 581 -264 581 -3 0 -9
-15 -16 -34z"/>
        <path class="head" stroke="#fff" stroke-miterlimit="10" d="M9351 10478 l-213 -8 -98 -88 c-95 -84 -116 -109 -105 -120 3 -3 56
11 118 31 61 20 155 46 207 58 93 20 266 77 325 107 28 14 28 16 10 23 -11 4
-22 7 -25 7 -3 -1 -101 -5 -219 -10z"/>
        <path class="head" stroke="#fff" stroke-miterlimit="10" d="M9497 10189 c-53 -50 -97 -95 -97 -100 0 -12 115 -11 224 2 119 15
132 23 78 44 -55 22 -82 57 -82 106 0 25 -5 39 -13 39 -7 0 -56 -41 -110 -91z"/>
        <path
            class="head"
            stroke="#fff"
            stroke-miterlimit="10"
            d="M4945 10220 l-50 -18 41 -1 41 -1 12 -57 c25 -110 102 -370 218 -728
64 -198 141 -445 172 -548 31 -104 61 -188 66 -187 6 0 9 34 8 78 -2 105 -45
266 -196 732 -69 212 -148 459 -177 550 -28 91 -59 172 -68 181 -16 15 -21 15
-67 -1z"/>
        <path class="head" stroke="#fff" stroke-miterlimit="10" d="M8759 10126 c-100 -27 -340 -189 -315 -213 12 -12 109 -22 232 -22
131 -1 254 16 349 49 77 26 235 101 235 111 0 12 -102 57 -166 74 -71 18 -269
19 -335 1z"/>
        <path
            class="head"
            stroke="#fff"
            stroke-miterlimit="10"
            d="M6620 9891 c-36 -10 -83 -27 -105 -38 -48 -25 -151 -101 -184 -137
l-24 -25 25 -10 c51 -19 222 -34 327 -28 162 10 341 47 423 88 34 18 37 21 25
40 -17 29 -135 87 -225 110 -92 23 -176 23 -262 0z"/>
        <path
            class="head"
            stroke="#fff"
            stroke-miterlimit="10"
            d="M7640 9830 c-8 -4 -91 -22 -183 -39 -92 -18 -179 -36 -193 -41 l-25
-10 24 -32 c13 -18 35 -54 50 -79 33 -57 112 -146 138 -154 13 -4 25 0 37 15
16 19 19 19 38 5 20 -14 30 -41 49 -142 4 -18 11 -33 15 -33 14 0 27 60 55
250 34 237 33 281 -5 260z"/>
        <path
            class="head"
            stroke="#fff"
            stroke-miterlimit="10"
            d="M7030 9669 c-166 -78 -200 -87 -396 -96 -120 -5 -147 -4 -167 10 -13
8 -66 29 -117 47 -72 23 -104 30 -135 25 -22 -4 -125 -22 -230 -40 -104 -19
-235 -39 -290 -46 -123 -14 -148 -25 -127 -55 12 -17 165 -144 174 -144 4 0 8
20 8 45 0 36 5 48 24 60 37 25 169 45 291 45 l113 0 21 -87 c11 -49 32 -160
46 -248 29 -183 68 -352 90 -395 26 -51 37 -37 30 38 -10 103 -53 418 -81 605
-15 92 -24 170 -21 174 12 11 27 -10 42 -60 13 -47 63 -283 79 -379 4 -21 11
-38 17 -38 15 0 25 36 53 198 15 84 31 163 36 175 6 14 7 -68 3 -220 -4 -186
-3 -243 6 -243 15 0 64 105 125 270 48 129 62 158 70 150 8 -9 -41 -181 -124
-433 -44 -136 -87 -277 -96 -313 -17 -76 -16 -78 55 -127 25 -17 91 -74 146
-126 55 -53 154 -136 219 -186 201 -152 281 -220 284 -241 2 -11 -8 -35 -22
-54 -33 -46 -136 -200 -158 -237 -62 -103 -170 -258 -185 -267 -26 -13 -33
-27 -33 -61 0 -40 19 -107 29 -101 5 3 36 53 71 111 76 130 330 515 376 571
19 23 34 49 34 58 0 9 -20 29 -46 44 -68 40 -329 226 -404 287 -36 29 -117
102 -180 162 l-115 108 4 44 c4 53 71 270 111 358 31 68 56 88 92 74 63 -24
98 -91 238 -453 105 -268 191 -453 220 -468 16 -8 20 -8 20 4 0 41 -93 298
-267 736 -112 279 -203 534 -203 564 0 9 4 16 9 16 14 0 62 -61 78 -99 13 -29
12 -35 -2 -51 -15 -17 -12 -27 47 -144 48 -98 80 -146 135 -209 133 -149 313
-448 313 -519 0 -21 -13 -44 -40 -75 -22 -25 -40 -54 -40 -63 0 -30 51 -245
60 -254 5 -5 16 7 26 30 43 102 55 123 99 183 31 42 50 60 57 53 12 -12 -6
-49 -69 -145 -25 -37 -43 -72 -41 -77 4 -12 173 99 205 135 45 51 39 234 -12
341 -30 63 -33 145 -10 274 8 47 15 119 15 161 l0 76 -137 212 c-76 116 -141
211 -145 211 -27 0 10 -159 69 -299 29 -69 36 -98 34 -146 -2 -91 75 -459 118
-565 36 -88 34 -188 -3 -150 -8 8 -65 89 -128 180 -63 91 -153 218 -199 282
-46 64 -109 156 -139 205 -142 229 -172 282 -168 294 9 27 106 -96 223 -281
128 -204 182 -281 203 -288 22 -7 13 17 -69 195 -44 97 -100 224 -124 282 -24
58 -62 146 -84 196 -22 49 -38 91 -36 94 19 18 115 -154 203 -365 101 -238
147 -324 173 -324 18 0 8 54 -62 348 -38 163 -77 329 -85 367 -24 114 -34 145
-47 144 -7 0 -77 -32 -157 -70z"/>
        <path
            class="head"
            stroke="#fff"
            stroke-miterlimit="10"
            d="M8321 9697 c-6 -7 -31 -78 -57 -158 -25 -79 -60 -178 -76 -219 -34
-85 -34 -151 -1 -211 l18 -34 3 68 c3 59 5 67 22 67 11 0 27 11 36 25 15 23
18 24 34 10 24 -22 28 -19 34 23 10 60 24 353 19 400 -5 44 -13 51 -32 29z"/>
        <path
            class="head"
            stroke="#fff"
            stroke-miterlimit="10"
            d="M7706 9671 c-8 -13 -67 -483 -62 -489 3 -2 20 5 38 16 63 40 90 53
96 48 8 -9 -29 -46 -74 -72 -23 -14 -45 -35 -48 -47 -9 -36 -7 -357 4 -421 19
-116 34 -89 82 141 51 251 49 243 59 243 5 0 9 -9 9 -20 0 -45 -34 -258 -70
-445 -22 -110 -44 -231 -49 -269 -10 -68 -37 -116 -66 -116 -7 0 -59 -30 -116
-67 -57 -36 -114 -72 -126 -80 -28 -16 -30 -43 -5 -43 20 0 52 -29 52 -47 0
-21 45 -66 99 -101 112 -70 165 -119 267 -244 57 -71 104 -131 104 -133 0 -3
-9 -5 -19 -5 -11 0 -82 59 -161 133 -213 199 -274 251 -278 238 -2 -7 28 -67
66 -134 102 -177 138 -257 114 -257 -13 0 -131 202 -212 364 -41 82 -79 151
-85 152 -5 2 -23 -18 -39 -44 -16 -26 -99 -159 -184 -297 -85 -137 -181 -288
-213 -335 -61 -88 -72 -115 -41 -106 44 14 138 27 257 37 156 12 300 54 440
129 120 65 185 80 368 86 198 6 230 11 256 35 26 25 27 57 2 106 -41 78 -89
203 -81 208 13 8 85 -124 114 -208 10 -31 29 -14 52 47 29 72 120 211 193 290
104 112 127 146 101 146 -6 0 -33 -16 -61 -35 -35 -24 -63 -35 -88 -35 -58 -1
-350 -36 -357 -43 -3 -3 -2 -28 4 -54 6 -26 14 -109 17 -184 11 -238 -18 -327
-35 -108 -7 98 -13 122 -39 172 -26 49 -29 64 -24 107 7 62 -2 67 -99 51 -112
-18 -258 -26 -258 -13 0 19 352 77 414 67 35 -5 120 8 336 52 97 19 193 65
221 105 31 43 17 58 -69 79 -82 21 -166 55 -183 75 -25 31 65 10 216 -49 42
-17 105 -22 105 -9 0 16 51 395 70 517 11 72 33 236 50 365 16 130 35 258 40
285 17 79 23 143 16 162 -11 28 -38 -24 -91 -177 -26 -74 -73 -200 -105 -280
-32 -80 -63 -163 -70 -185 -7 -22 -39 -102 -71 -177 -32 -75 -67 -166 -78
-203 -13 -41 -39 -91 -66 -127 -25 -33 -45 -66 -45 -72 0 -20 -38 -49 -55 -43
-8 4 -15 16 -15 27 0 48 -100 290 -120 290 -4 0 -11 -39 -15 -87 -8 -110 -16
-132 -55 -139 -16 -4 -30 -10 -30 -15 0 -10 24 -16 102 -23 68 -7 88 -14 88
-31 0 -20 -34 -25 -166 -25 -88 0 -140 -5 -195 -20 -92 -24 -127 -26 -109 -6
17 21 89 47 151 55 l54 6 -3 55 c-5 95 -72 622 -87 685 -8 33 -19 101 -25 150
-8 73 -58 301 -85 386 -7 20 -20 25 -29 10z m900 -987 c7 -52 -1 -297 -11
-331 -4 -13 -13 -23 -20 -23 -18 0 -118 84 -150 126 -24 31 -25 37 -13 52 8 9
36 56 62 104 46 87 75 118 108 118 12 0 19 -12 24 -46z"/>
        <path
            class="head"
            stroke="#fff"
            stroke-miterlimit="10"
            d="M9733 9467 c-17 -20 -48 -66 -69 -104 -49 -90 -190 -289 -209 -297
-41 -15 -1 80 88 211 76 112 74 107 46 92 -13 -6 -42 -23 -63 -37 -25 -15 -55
-25 -79 -25 l-39 0 4 -146 c3 -97 9 -156 19 -177 16 -36 57 -72 322 -285 139
-112 187 -156 187 -173 0 -31 -35 -91 -95 -166 -105 -130 -130 -198 -39 -110
119 118 193 230 194 295 0 27 -10 38 -82 90 -203 146 -448 356 -448 382 0 5
33 52 73 105 85 114 231 351 225 369 -2 6 -17 -4 -35 -24z"/>
        <path
            class="head"
            stroke="#fff"
            stroke-miterlimit="10"
            d="M5560 9446 c0 -4 21 -73 46 -154 25 -81 88 -312 140 -514 51 -202
102 -385 114 -407 17 -34 56 -70 64 -59 6 8 -156 769 -180 844 -14 46 -24 87
-21 90 13 13 142 -103 244 -219 232 -264 313 -380 298 -425 -3 -11 -40 -62
-81 -114 -78 -96 -102 -134 -91 -144 3 -4 65 49 136 116 72 68 140 129 151
137 28 20 22 29 -134 202 -72 80 -179 200 -238 266 -104 117 -148 157 -315
289 -94 74 -133 101 -133 92z"/>
        <path
            class="head"
            stroke="#fff"
            stroke-miterlimit="10"
            d="M6357 8528 c-25 -35 -109 -128 -186 -208 -93 -96 -141 -152 -141
-167 0 -12 11 -34 24 -50 13 -15 33 -46 44 -68 30 -58 67 -99 80 -91 17 10 15
28 -13 140 l-25 100 56 50 c124 112 170 129 203 75 27 -44 198 -683 225 -842
8 -44 73 -124 89 -108 15 15 -8 125 -108 531 -117 470 -172 671 -189 688 -11
11 -21 3 -59 -50z"/>
        <path
            class="head"
            stroke="#fff"
            stroke-miterlimit="10"
            d="M9948 8320 c-38 -29 -121 -143 -319 -435 -94 -137 -190 -280 -216
-316 l-45 -66 -187 -6 c-186 -6 -340 -25 -380 -46 -12 -7 -49 -31 -84 -55 -34
-23 -87 -57 -118 -74 -78 -44 -126 -98 -367 -417 -116 -154 -242 -313 -278
-352 -37 -40 -62 -73 -56 -73 13 0 128 84 175 129 21 20 47 53 58 74 11 20 26
37 33 37 8 0 72 -43 141 -95 70 -53 130 -93 133 -90 3 3 -45 57 -108 120 -63
63 -116 119 -118 125 -10 30 188 200 232 200 36 0 82 -51 159 -174 59 -95 87
-125 87 -93 0 8 -24 81 -54 163 -73 199 -100 303 -84 321 30 36 200 99 233 87
17 -7 20 -28 45 -293 11 -117 23 -218 27 -224 17 -27 22 50 22 346 l1 319 28
-6 c15 -2 54 -8 87 -11 33 -3 84 -13 113 -21 59 -16 73 -36 87 -121 4 -24 11
-43 16 -43 5 0 36 54 69 120 59 119 88 153 75 88 -4 -18 -29 -94 -55 -168 -27
-74 -58 -166 -70 -205 -34 -110 -75 -171 -210 -309 -192 -197 -373 -335 -509
-386 -31 -12 -124 -28 -248 -41 -245 -26 -463 -22 -586 10 -144 38 -354 153
-463 253 -74 68 -378 505 -372 535 2 13 8 12 34 -10 52 -44 75 -48 191 -37 68
6 111 6 123 0 20 -11 29 -34 59 -156 38 -152 131 -404 150 -404 27 0 19 54
-48 332 -76 311 -83 401 -28 340 10 -10 39 -29 67 -42 27 -13 52 -31 55 -41 4
-10 28 -38 54 -61 54 -48 48 -27 82 -282 27 -204 40 -276 49 -276 4 0 10 118
13 263 5 245 16 357 37 357 9 0 16 -27 26 -110 8 -70 12 -75 35 -54 39 35 117
5 244 -97 48 -39 94 -69 103 -67 49 10 7 57 -185 206 -73 56 -135 106 -138
112 -3 6 5 10 19 10 14 0 66 -28 123 -67 91 -62 159 -96 174 -87 4 2 10 38 14
79 4 41 11 75 15 75 5 0 14 -18 20 -40 5 -22 15 -58 20 -80 6 -22 14 -40 18
-40 12 0 154 149 202 210 43 55 43 55 18 58 -14 2 -65 -8 -114 -22 -116 -33
-201 -43 -414 -52 -146 -5 -181 -4 -212 9 -20 8 -74 23 -120 32 -46 10 -95 23
-110 31 -46 24 -412 12 -548 -18 -101 -21 -98 -21 -105 3 -4 12 -68 82 -142
155 -121 120 -179 173 -351 321 -29 25 -75 74 -102 110 -43 57 -69 105 -144
263 -15 31 -27 45 -41 45 -35 0 -28 -36 29 -164 65 -144 130 -259 181 -319 33
-37 41 -42 80 -42 36 0 52 -6 81 -32 71 -62 328 -372 439 -528 33 -46 83 -109
111 -140 28 -30 93 -108 144 -173 121 -152 202 -218 379 -305 228 -113 323
-136 566 -136 276 0 534 48 664 123 253 148 513 408 716 716 73 110 322 574
330 613 2 11 15 43 29 71 15 28 47 102 72 164 26 61 75 169 111 239 70 137 78
176 31 138z"/>
        <path
            class="head"
            stroke="#fff"
            stroke-miterlimit="10"
            d="M11870 7747 c-30 -13 -111 -53 -180 -89 -138 -74 -244 -109 -418
-138 -149 -26 -185 -45 -362 -194 -105 -89 -180 -137 -249 -162 -82 -29 -204
-75 -278 -105 -65 -26 -82 -29 -190 -29 -65 0 -187 8 -272 17 -127 14 -167 15
-235 5 -139 -20 -125 -34 -128 131 -3 132 -4 139 -16 102 -20 -63 -31 -246
-18 -302 6 -26 11 -109 11 -183 0 -216 -29 -294 -179 -493 -270 -359 -328
-408 -581 -497 -49 -18 -133 -51 -187 -75 -109 -49 -161 -61 -297 -70 -52 -3
-151 -17 -220 -31 -119 -25 -138 -26 -346 -21 -317 8 -542 47 -652 114 -167
100 -323 235 -364 313 -36 70 -33 147 10 239 l34 74 -6 181 c-3 100 -11 206
-16 236 -6 30 -17 100 -25 155 -8 55 -19 121 -24 147 -13 72 -80 148 -94 106
-4 -12 3 -64 57 -373 35 -204 54 -426 42 -477 l-7 -25 -482 -7 c-690 -9 -724
-11 -833 -48 -264 -89 -417 -198 -646 -459 -70 -81 -144 -157 -164 -169 -34
-21 -42 -22 -175 -15 -115 6 -146 4 -187 -9 -28 -10 -145 -85 -288 -186 -380
-269 -385 -274 -539 -455 -32 -39 -146 -160 -253 -269 -124 -126 -212 -225
-240 -270 -25 -39 -54 -78 -66 -87 -26 -21 -71 -94 -141 -229 -71 -136 -189
-328 -295 -477 -77 -109 -158 -254 -176 -313 -12 -40 -45 -114 -124 -275 -96
-197 -193 -414 -219 -495 -45 -137 -107 -508 -97 -586 5 -45 10 -53 48 -77 33
-22 43 -25 45 -13 3 14 -42 95 -60 107 -6 4 1 69 16 160 64 376 195 713 425
1089 11 19 21 43 21 53 0 9 18 35 40 57 22 22 40 48 40 59 0 10 10 33 23 52
12 19 40 69 62 113 22 43 50 85 62 93 13 8 39 47 58 87 20 39 43 73 52 77 8 3
70 113 137 245 141 278 179 330 420 569 83 83 226 229 317 325 115 121 197
197 265 247 54 40 173 128 264 194 199 146 223 158 313 159 100 0 146 -15 223
-74 80 -61 281 -276 333 -356 50 -78 54 -40 6 59 -33 66 -56 94 -179 215
l-141 138 30 21 c17 12 117 111 224 220 210 214 305 288 472 366 141 66 216
81 454 92 116 5 264 14 330 19 199 16 538 31 563 25 23 -6 23 -8 15 -58 -12
-80 -8 -128 17 -177 46 -91 228 -255 388 -349 119 -71 395 -124 703 -137 136
-5 172 -3 314 20 88 14 216 30 285 37 134 11 158 18 395 113 196 79 310 137
381 195 61 49 298 338 394 479 74 109 82 143 87 385 l5 207 87 0 c47 0 163 -9
256 -20 286 -33 374 -25 592 58 164 61 250 110 389 220 60 46 132 95 159 108
55 26 105 31 105 12 0 -7 -43 -66 -95 -131 -188 -234 -85 -176 179 101 86 89
136 122 263 171 55 22 153 66 219 98 65 33 135 66 154 73 42 16 60 36 60 67 0
30 -27 30 -100 0z"/>
        <path
            class="head"
            stroke="#fff"
            stroke-miterlimit="10"
            d="M8352 7500 c-24 -5 -69 -21 -100 -36 -54 -25 -70 -27 -318 -38 -253
-12 -263 -13 -318 -40 -104 -51 -69 -60 181 -46 248 13 331 25 490 71 73 21
169 45 214 54 86 16 97 20 85 32 -11 11 -186 13 -234 3z"/>
        <path
            class="head"
            stroke="#fff"
            stroke-miterlimit="10"
            d="M8575 7431 c-60 -21 -144 -52 -185 -69 -62 -25 -108 -34 -260 -51
-102 -11 -275 -25 -385 -31 -244 -12 -314 -19 -295 -30 8 -4 44 -11 80 -14 36
-4 90 -14 120 -23 45 -13 84 -15 210 -10 85 4 193 13 240 22 47 8 106 15 131
15 68 0 162 32 264 91 50 29 123 68 163 87 40 19 75 38 78 43 11 19 -56 6
-161 -30z"/>
        <path
            class="head"
            stroke="#fff"
            stroke-miterlimit="10"
            d="M9841 6282 c-17 -27 -76 -98 -131 -158 -55 -60 -149 -163 -208 -229
-184 -206 -358 -391 -606 -642 -131 -134 -236 -246 -233 -250 27 -26 495 424
800 769 74 84 180 203 236 263 127 137 181 215 181 261 0 19 -2 34 -4 34 -2 0
-18 -22 -35 -48z"/>
        <path
            class="head"
            stroke="#fff"
            stroke-miterlimit="10"
            d="M5336 4833 c-64 -97 -101 -349 -126 -853 -23 -453 -28 -499 -95 -780
-138 -581 -195 -1080 -198 -1732 -2 -209 1 -300 9 -308 9 -9 13 2 18 42 8 71
23 330 36 613 24 538 79 946 195 1450 63 276 72 351 100 830 24 413 56 691 87
748 19 36 -1 29 -26 -10z"/>
        <path
            class="head"
            stroke="#fff"
            stroke-miterlimit="10"
            d="M3675 4338 c-52 -27 -121 -127 -179 -259 -62 -142 -79 -178 -176
-384 -87 -183 -107 -245 -79 -245 13 0 120 225 207 435 75 182 112 251 175
321 24 27 51 63 60 80 9 17 23 34 32 38 18 6 11 26 -8 25 -7 0 -21 -5 -32 -11z"/>
        <path class="head" stroke="#fff" stroke-miterlimit="10" d="M5056 4158 c-3 -40 -10 -209 -16 -374 -5 -166 -14 -313 -19 -327 -12
-31 -71 -332 -71 -361 0 -55 25 20 71 215 l51 214 5 353 c4 237 2 352 -5 352
-6 0 -13 -33 -16 -72z"/>
        <path
            class="head"
            stroke="#fff"
            stroke-miterlimit="10"
            d="M2000 1891 c0 -5 26 -19 57 -31 32 -12 107 -54 168 -94 60 -40 124
-80 140 -89 17 -9 53 -37 80 -64 28 -26 62 -56 75 -65 14 -10 45 -32 70 -49
69 -50 339 -199 359 -199 12 0 152 -97 255 -176 209 -162 256 -195 268 -191
27 10 -222 233 -352 315 -36 23 -69 45 -75 49 -5 5 -59 33 -120 62 -146 72
-304 170 -390 244 -159 135 -206 168 -325 229 -90 46 -138 65 -168 66 -23 1
-42 -2 -42 -7z"/>
        <path
            class="head"
            stroke="#fff"
            stroke-miterlimit="10"
            d="M1786 1823 c-3 -4 -25 -9 -48 -12 -39 -6 -45 -11 -102 -96 -34 -50
-93 -133 -132 -185 -79 -105 -146 -218 -230 -385 -31 -60 -84 -162 -120 -225
-82 -145 -187 -359 -209 -425 -23 -71 -153 -316 -214 -404 -53 -77 -59 -91
-39 -91 23 0 225 238 234 277 3 15 22 71 41 123 19 52 44 122 54 155 11 33 36
92 57 130 21 39 58 106 82 150 24 44 49 87 57 96 7 9 46 81 87 160 82 159 187
339 237 409 18 25 66 93 106 151 48 71 80 109 96 113 28 7 77 43 77 57 0 11
-23 12 -34 2z"/>
        <path
            class="head"
            stroke="#fff"
            stroke-miterlimit="10"
            d="M4005 1359 c-22 -12 -49 -29 -59 -38 -38 -33 -211 -228 -262 -296
-42 -56 -65 -76 -113 -100 -33 -17 -61 -34 -61 -38 0 -11 108 -7 140 5 14 5
45 38 70 74 76 112 137 185 241 290 118 120 130 149 44 103z"/>
        <path class="head" stroke="#fff" stroke-miterlimit="10" d="M4760 1253 c-25 -91 -61 -665 -59 -958 2 -239 15 -155 29 180 6 149
17 320 25 380 16 120 32 435 22 435 -3 0 -11 -17 -17 -37z"/>
        <path
            class="head"
            stroke="#fff"
            stroke-miterlimit="10"
            d="M4025 1185 c3 -38 12 -88 20 -110 8 -22 14 -57 15 -78 0 -20 5 -45
11 -55 9 -14 -1 -78 -46 -298 -68 -326 -81 -397 -90 -481 l-7 -63 44 0 45 0 6
88 c3 48 20 155 37 237 63 308 82 473 59 532 -6 15 -24 77 -40 137 -16 59 -36
120 -45 135 -14 25 -15 22 -9 -44z"/>
        <path
            class="head"
            stroke="#fff"
            stroke-miterlimit="10"
            d="M3389 839 c-18 -29 -52 -106 -75 -173 -23 -67 -62 -162 -86 -211 -25
-50 -49 -100 -53 -113 -4 -13 -27 -58 -52 -100 -53 -90 -113 -211 -113 -229 0
-7 11 -13 24 -13 19 0 29 13 60 83 20 45 68 136 105 202 43 75 88 175 121 265
29 80 63 165 75 190 13 25 27 61 33 80 5 19 13 43 17 53 5 12 2 17 -8 17 -8 0
-30 -23 -48 -51z"/>
        <path class="head" stroke="#fff" stroke-miterlimit="10" d="M4912 750 c-14 -35 -30 -170 -47 -400 -19 -250 -19 -252 2 -248 24 4
29 36 48 359 17 286 17 338 -3 289z"/>
    </g>
</svg>
